<svg xmlns="http://www.w3.org/2000/svg" xmlns:xlink="http://www.w3.org/1999/xlink" width="434" height="434" viewBox="0 0 434 434">
  <defs>
    <clipPath id="clip-path">
      <rect id="Rectangle_137" data-name="Rectangle 137" width="434" height="434" fill="none" stroke="#fff" stroke-width="1"/>
    </clipPath>
  </defs>
  <g id="Mask_Group_31" data-name="Mask Group 31" opacity="0.6" clip-path="url(#clip-path)">
    <g id="Group_328" data-name="Group 328" transform="translate(-91.017 -702.269)">
      <g id="Group_324" data-name="Group 324" transform="translate(554.488 1227.028) rotate(-121)">
        <line id="Line_412" data-name="Line 412" x2="566.5" transform="translate(0 5.945)" fill="none" stroke="#fff" stroke-width="35"/>
        <line id="Line_413" data-name="Line 413" y1="590.213" x2="355.127" transform="matrix(0.469, -0.883, 0.883, 0.469, 388.746, 313.559)" fill="none" stroke="#fff" stroke-width="35"/>
      </g>
      <g id="Group_325" data-name="Group 325" transform="translate(625.855 1227.028) rotate(-121)">
        <line id="Line_414" data-name="Line 414" x2="566.5" transform="translate(0 5.945)" fill="none" stroke="#fff" stroke-width="35"/>
        <line id="Line_415" data-name="Line 415" y1="590.213" x2="355.127" transform="matrix(0.469, -0.883, 0.883, 0.469, 388.746, 313.559)" fill="none" stroke="#fff" stroke-width="35"/>
      </g>
      <g id="Group_326" data-name="Group 326" transform="translate(695.123 1227.028) rotate(-121)">
        <line id="Line_416" data-name="Line 416" x2="566.5" transform="translate(0 5.945)" fill="none" stroke="#fff" stroke-width="35"/>
        <line id="Line_417" data-name="Line 417" y1="590.213" x2="355.127" transform="matrix(0.469, -0.883, 0.883, 0.469, 388.746, 313.559)" fill="none" stroke="#fff" stroke-width="35"/>
      </g>
      <g id="Group_327" data-name="Group 327" transform="translate(766.49 1227.028) rotate(-121)">
        <line id="Line_418" data-name="Line 418" x2="566.5" transform="translate(0 5.945)" fill="none" stroke="#fff" stroke-width="35"/>
        <line id="Line_419" data-name="Line 419" y1="590.213" x2="355.127" transform="matrix(0.469, -0.883, 0.883, 0.469, 388.746, 313.559)" fill="none" stroke="#fff" stroke-width="35"/>
      </g>
    </g>
    <g id="Group_333" data-name="Group 333" transform="matrix(0.469, -0.883, 0.883, 0.469, -975.184, 647.495)">
      <g id="Group_329" data-name="Group 329" transform="translate(212.002 922.822) rotate(-59)">
        <line id="Line_420" data-name="Line 420" x2="566.5" transform="translate(0 584.701)" fill="none" stroke="#fff" stroke-width="35"/>
        <line id="Line_421" data-name="Line 421" x2="355.127" y2="590.213" transform="matrix(0.469, 0.883, -0.883, 0.469, 909.873, 0)" fill="none" stroke="#fff" stroke-width="35"/>
      </g>
      <g id="Group_330" data-name="Group 330" transform="translate(140.635 922.822) rotate(-59)">
        <line id="Line_422" data-name="Line 422" x2="566.5" transform="translate(0 584.701)" fill="none" stroke="#fff" stroke-width="35"/>
        <line id="Line_423" data-name="Line 423" x2="355.127" y2="590.213" transform="matrix(0.469, 0.883, -0.883, 0.469, 909.873, 0)" fill="none" stroke="#fff" stroke-width="35"/>
      </g>
      <g id="Group_331" data-name="Group 331" transform="translate(71.367 922.822) rotate(-59)">
        <line id="Line_424" data-name="Line 424" x2="566.5" transform="translate(0 584.701)" fill="none" stroke="#fff" stroke-width="35"/>
        <line id="Line_425" data-name="Line 425" x2="355.127" y2="590.213" transform="matrix(0.469, 0.883, -0.883, 0.469, 909.873, 0)" fill="none" stroke="#fff" stroke-width="35"/>
      </g>
      <g id="Group_332" data-name="Group 332" transform="translate(0 922.822) rotate(-59)">
        <line id="Line_426" data-name="Line 426" x2="566.5" transform="translate(0 584.701)" fill="none" stroke="#fff" stroke-width="35"/>
        <line id="Line_427" data-name="Line 427" x2="355.127" y2="590.213" transform="matrix(0.469, 0.883, -0.883, 0.469, 909.873, 0)" fill="none" stroke="#fff" stroke-width="35"/>
      </g>
    </g>
  </g>
</svg>
